<svg xmlns="http://www.w3.org/2000/svg" viewBox="0 0 40 40" width="40" height="40">
	<defs>
		<clipPath clipPathUnits="userSpaceOnUse" id="cp1">
			<path d="M-978 -2854L942 -2854L942 2039L-978 2039Z" />
		</clipPath>
	</defs>
	<style>
		tspan { white-space:pre }
		.shp0 { fill: #000000 } 
	</style>
	<g id="main" clip-path="url(#cp1)">
		<g id="insta">
			<g id="instagram (11)">
				<path id="Path 411" fill-rule="evenodd" class="shp0" d="M39.83 11.57C39.92 13.67 39.93 14.34 39.93 19.69C39.93 25.03 39.91 25.7 39.81 27.8C39.72 29.89 39.38 31.32 38.9 32.58C37.88 35.22 35.78 37.31 33.14 38.34C31.89 38.82 30.46 39.16 28.36 39.25C26.26 39.34 25.59 39.37 20.25 39.37C14.91 39.37 14.24 39.34 12.14 39.25C10.04 39.16 8.61 38.82 7.36 38.34C6.05 37.84 4.86 37.07 3.88 36.07C2.88 35.08 2.1 33.9 1.6 32.58C1.12 31.33 0.78 29.89 0.69 27.8C0.59 25.7 0.57 25.03 0.57 19.69C0.57 14.34 0.59 13.67 0.69 11.57C0.79 9.47 1.12 8.04 1.61 6.79C2.1 5.48 2.88 4.29 3.88 3.31C4.86 2.3 6.05 1.53 7.37 1.03C8.61 0.55 10.05 0.21 12.14 0.12C14.24 0.02 14.91 0 20.26 0C25.6 0 26.27 0.02 28.38 0.12C30.47 0.22 31.9 0.55 33.15 1.04C34.46 1.53 35.65 2.31 36.64 3.31C37.65 4.29 38.42 5.48 38.92 6.8C39.4 8.04 39.74 9.48 39.83 11.57ZM36.29 27.65C36.38 25.57 36.4 24.95 36.4 19.7C36.4 14.45 36.38 13.83 36.29 11.75C36.2 9.84 35.88 8.79 35.61 8.1C35.29 7.24 34.79 6.48 34.14 5.84C33.51 5.18 32.73 4.68 31.88 4.37C31.19 4.1 30.15 3.78 28.23 3.69C26.16 3.6 25.53 3.58 20.27 3.58C15.02 3.58 14.4 3.6 12.32 3.69C10.41 3.78 9.36 4.1 8.67 4.37C7.81 4.68 7.05 5.18 6.41 5.84C5.75 6.47 5.25 7.24 4.93 8.1C4.66 8.79 4.34 9.83 4.25 11.75C4.16 13.82 4.14 14.45 4.14 19.7C4.14 24.95 4.16 25.58 4.25 27.65C4.34 29.57 4.66 30.61 4.93 31.31C5.25 32.16 5.75 32.93 6.4 33.57C7.03 34.22 7.81 34.72 8.66 35.04C9.35 35.31 10.39 35.63 12.31 35.71C14.38 35.81 15.01 35.83 20.27 35.83C25.52 35.83 26.14 35.81 28.22 35.71C30.13 35.63 31.18 35.31 31.87 35.04C33.59 34.38 34.95 33.01 35.61 31.3C35.88 30.61 36.2 29.57 36.29 27.65Z" />
				<path id="Path 412" fill-rule="evenodd" class="shp0" d="M30.37 19.69C30.37 25.27 25.84 29.8 20.26 29.8C14.67 29.8 10.14 25.27 10.14 19.69C10.14 14.1 14.67 9.57 20.26 9.57C25.84 9.57 30.37 14.1 30.37 19.69ZM26.82 19.69C26.82 16.06 23.88 13.13 20.26 13.13C16.64 13.13 13.7 16.06 13.7 19.69C13.7 23.31 16.64 26.25 20.26 26.25C23.88 26.25 26.82 23.31 26.82 19.69Z" />
				<path id="Path 413" class="shp0" d="M33.13 9.17C33.13 10.48 32.07 11.54 30.77 11.54C29.47 11.54 28.41 10.48 28.41 9.17C28.41 7.87 29.47 6.81 30.77 6.81C32.07 6.81 33.13 7.87 33.13 9.17Z" />
			</g>
		</g>
	</g>
</svg>