<svg xmlns="http://www.w3.org/2000/svg" viewBox="0 0 14 14" width="14" height="14">
	<defs>
		<clipPath clipPathUnits="userSpaceOnUse" id="cp1">
			<path d="M-356 -4757L1564 -4757L1564 136L-356 136Z" />
		</clipPath>
	</defs>
	<style>
		tspan { white-space:pre }
		.shp0 { fill: #000000 } 
	</style>
	<g id="main" clip-path="url(#cp1)">
		<g id="stopka">
			<g id="phone (3)">
				<g id="Group 531">
					<path id="Path 428" class="shp0" d="M12.63 9.01C11.79 9.01 10.97 8.88 10.18 8.62C9.8 8.49 9.33 8.61 9.09 8.85L7.55 10.02C5.76 9.06 4.66 7.96 3.71 6.18L4.84 4.68C5.14 4.39 5.24 3.96 5.12 3.56C4.86 2.77 4.73 1.94 4.73 1.1C4.73 0.49 4.23 0 3.62 0L1.1 0C0.49 0 0 0.49 0 1.1C0 8.07 5.67 13.73 12.63 13.73C13.24 13.73 13.73 13.24 13.73 12.63L13.73 10.12C13.73 9.51 13.24 9.01 12.63 9.01Z" />
				</g>
			</g>
		</g>
	</g>
</svg>